PathFileType	4	(X/Y/Z)	traj.trc
DataRate	CameraRate	NumFrames	NumMarkers	Units	OrigDataRate	OrigDataStartFrame	OrigNumFrames
30.00	30.00	100	1	mm	30.00	1	100
Frame#	Time	wrist		
		X1	Y1	Z1

0	0.0	100.0	900.0	100.0
1	0.10101010101010101	100.0	900.0	100.0
2	0.20202020202020202	100.00149969392442	899.9985003060757	99.99700061215121
3	0.30303030303030304	100.00887636416479	899.9911236358353	99.98224727167043
4	0.40404040404040403	100.02770529933807	899.972294700662	99.94458940132388
5	0.5050505050505051	100.0632057590995	899.9367942409006	99.87358848180101
6	0.6060606060606061	100.12024846948927	899.8797515305107	99.75950306102146
7	0.7070707070707071	100.20336311827904	899.7966368817209	99.59327376344193
8	0.8080808080808081	100.3167458503185	899.6832541496815	99.36650829936303
9	0.9090909090909091	100.46426676288193	899.535733237118	99.07146647423615
10	1.0101010101010102	100.64947740101482	899.3505225989852	98.70104519797037
11	1.1111111111111112	100.87561825288032	899.1243817471197	98.24876349423937
12	1.2121212121212122	101.1456262451059	898.8543737548941	97.70874750978822
13	1.3131313131313131	101.46214223812986	898.5378577618702	97.07571552374031
14	1.4141414141414141	101.82751852154789	898.1724814784521	96.34496295690423
15	1.5151515151515151	102.24382630945969	897.7561736905403	95.51234738108063
16	1.6161616161616161	102.71286323581545	897.2871367641845	94.57427352836913
17	1.7171717171717171	103.23616084976243	896.7638391502376	93.52767830047515
18	1.8181818181818181	103.8149921109916	896.1850078890085	92.37001577801682
19	1.9191919191919191	104.45037888508408	895.549621114916	91.09924222983187
20	2.0202020202020203	105.14309943885776	894.8569005611423	89.7138011222845
21	2.121212121212121	105.89369593571392	894.1063040642862	88.21260812857219
22	2.2222222222222223	106.70248193098367	893.2975180690164	86.59503613803268
23	2.323232323232323	107.5695498672746	892.4304501327255	84.86090026545084
24	2.4242424242424243	108.4947785698173	891.5052214301827	83.0104428603654
25	2.525252525252525	109.47784074181195	890.5221592581881	81.0443185163761
26	2.6262626262626263	110.51821045977488	889.4817895402251	78.96357908045027
27	2.727272727272727	111.61517066888504	888.3848293311149	76.76965866222993
28	2.8282828282828283	112.76782067833075	887.2321793216693	74.46435864333853
29	2.929292929292929	113.97508365665604	886.024916343344	72.04983268668794
30	3.0303030303030303	115.2357141271074	884.7642858728926	69.52857174578521
31	3.131313131313131	116.54830546298022	883.4516945370198	66.90338907403958
32	3.2323232323232323	117.91129738296539	882.0887026170346	64.17740523406923
33	3.3333333333333335	119.32298344649588	880.6770165535041	61.35403310700823
34	3.4343434343434343	120.78151854909329	879.2184814509068	58.43696290181343
35	3.5353535353535355	122.28492641771435	877.7150735822856	55.4301471645713
36	3.6363636363636362	123.8311071060976	876.1688928939025	52.337785787804805
37	3.7373737373737375	125.41784449010984	874.5821555098902	49.16431101978032
38	3.8383838383838382	127.0428137630928	872.9571862369072	45.91437247381447
39	3.9393939393939394	128.70358893120948	871.2964110687906	42.59282213758103
40	4.040404040404041	130.3976503087911	869.6023496912089	39.20469938241781
41	4.141414141414141	132.12239201368325	867.8776079863168	35.75521597263349
42	4.242424242424242	133.87512946259272	866.1248705374073	32.24974107481459
43	4.343434343434343	135.6531068664339	864.3468931335661	28.693786267132218
44	4.444444444444445	137.45350472567546	862.5464952743246	25.092990548649066
45	4.545454545454545	139.2734473256869	860.7265526743131	21.453105348626224
46	4.646464646464646	141.11001023208496	858.889989767915	17.779979535830062
47	4.747474747474747	142.96022778608045	857.0397722139196	14.079544427839139
48	4.848484848484849	144.8211005998245	855.1788994001755	10.35779880035105
49	4.94949494949495	146.6896030517553	853.3103969482447	6.6207938964893405
50	5.05050505050505	148.56269078194484	851.4373092180551	2.8746184361103237
51	5.151515151515151	150.43730818744498	849.562691812555	-0.8746163748899888
52	5.252525252525253	152.3103959176345	847.6896040823655	-4.620791835269006
53	5.353535353535354	154.1788983695654	845.8211016304347	-8.35779673913073
54	5.454545454545454	156.03977118330943	843.9602288166907	-12.079542366618817
55	5.555555555555555	157.88998873730486	842.1100112626951	-15.77997747460974
56	5.656565656565657	159.72655164370298	840.2734483562971	-19.453103287405902
57	5.757575757575758	161.54649424371436	838.4535057562856	-23.092988487428745
58	5.858585858585858	163.34689210295593	836.653107897044	-26.693784205911896
59	5.959595959595959	165.12486950679713	834.875130493203	-30.24973901359426
60	6.0606060606060606	166.87760695570657	833.1223930442935	-33.75521391141317
61	6.161616161616162	168.60234866059875	831.3976513394012	-37.204697321197465
62	6.262626262626262	170.29641003818037	829.7035899618197	-40.592820076360695
63	6.363636363636363	171.95718520629708	828.042814793703	-43.91437041259413
64	6.4646464646464645	173.58215447928	826.4178455207201	-47.16430895856
65	6.565656565656566	175.16889186329226	824.8311081367078	-50.33778372658451
66	6.666666666666667	176.71507255167552	823.2849274483245	-53.43014510335101
67	6.767676767676767	178.2184804202966	821.7815195797035	-56.43696084059313
68	6.8686868686868685	179.67701552289398	820.322984477106	-59.35403104578793
69	6.96969696969697	181.0887015864245	818.9112984135755	-62.17740317284892
70	7.070707070707071	182.45169350640967	817.5483064935904	-64.90338701281928
71	7.171717171717171	183.76428484228248	816.2357151577176	-67.52856968456491
72	7.2727272727272725	185.0249153127338	814.9750846872662	-70.04983062546764
73	7.373737373737374	186.2321782910591	813.7678217089409	-72.46435658211823
74	7.474747474747475	187.3848283005048	812.6151716994952	-74.76965660100961
75	7.575757575757575	188.481788509615	811.518211490385	-76.96357701922999
76	7.6767676767676765	189.5221582275779	810.4778417724222	-79.04431645515581
77	7.777777777777778	190.50522039957258	809.4947796004275	-81.01044079914513
78	7.878787878787879	191.43044910211526	808.5695508978847	-82.86089820423054
79	7.979797979797979	192.2975170384062	807.7024829615939	-84.5950340768124
80	8.080808080808081	193.10630303367597	806.8936969663241	-86.2126060673519
81	8.181818181818182	193.85689953053208	806.1431004694679	-87.71379906106417
82	8.282828282828282	194.5496200843058	805.4503799156943	-89.09924016861156
83	8.383838383838384	195.18500685839825	804.8149931416018	-90.3700137167965
84	8.484848484848484	195.76383811962742	804.2361618803726	-91.52767623925482
85	8.585858585858587	196.2871357335744	803.7128642664256	-92.57427146714878
86	8.686868686868687	196.75617265993014	803.24382734007	-93.51234531986027
87	8.787878787878787	197.17248044784193	802.8275195521582	-94.34496089568387
88	8.88888888888889	197.53785673125998	802.4621432687401	-95.07571346251994
89	8.98989898989899	197.85437272428393	802.1456272757162	-95.70874544856787
90	9.09090909090909	198.1243807165095	801.8756192834906	-96.248761433019
91	9.191919191919192	198.35052156837503	801.6494784316251	-96.70104313674999
92	9.292929292929292	198.53573220650787	801.4642677934922	-97.07146441301573
93	9.393939393939394	198.6832531190713	801.3167468809288	-97.3665062381426
94	9.494949494949495	198.79663585111078	801.2033641488892	-97.59327170222151
95	9.595959595959595	198.87975049990052	801.1202495000995	-97.75950099980105
96	9.696969696969697	198.9367932102903	801.0632067897097	-97.87358642058058
97	9.797979797979798	198.97229367005176	801.0277063299484	-97.9445873401035
98	9.8989898989899	198.99112260522506	801.008877394775	-97.98224521045007
99	10.0	198.99849927546543	801.0015007245347	-97.99699855093083
